# xmcd
#
# Track frame offsets: 
#        150
#        16681
#        39530
#        58686
#        75822
#        92510
#        113772
#        129047
#        145397
#        161241
#        180568
#        198118
#        218193
#        236081
#
# Disc length: 3487 seconds
#
# Revision: 0
# Processed by: cddbd v1.5.2PL0 Copyright (c) Steve Scherf et al.
# Submitted via: ExactAudioCopyFreeDBPlugin 1.0
#
DISCID=ab0d9d0e
DTITLE=中國群星 - 中國好聲音 夢開始的地方
DYEAR=2013
DGENRE=Vocal
TTITLE0=吳莫愁 - 愛愛愛愛
TTITLE1=平安 - 獨唱
TTITLE2=鄒宏宇 - 燦爛人生路
TTITLE3=金池 - 痴心不改
TTITLE4=丁丁 - 敢愛敢當
TTITLE5=張赫宣 - 看月光
TTITLE6=金志文 - 怎麼辦
TTITLE7=王克 - 催花雨
TTITLE8=王乃恩 - 因為愛着你
TTITLE9=袁婭維 - 想愛
TTITLE10=黃一 - 愛我的承諾
TTITLE11=李代沫 - 末日不孤單
TTITLE12=張瑋 - 世界為你轉身
TTITLE13=合唱 - 相親相愛
EXTD=
EXTT0=
EXTT1=
EXTT2=
EXTT3=
EXTT4=
EXTT5=
EXTT6=
EXTT7=
EXTT8=
EXTT9=
EXTT10=
EXTT11=
EXTT12=
EXTT13=
PLAYORDER=
